# xmcd
#
# Track frame offsets: 
#        150
#        45942
#        75040
#        91533
#        119014
#        146903
#        189481
#        224855
#        244251
#        259925
#        293517
#        331307
#
# Disc length: 4625 seconds
#
# Revision: 1
# Processed by: cddbd v1.5.2PL0 Copyright (c) Steve Scherf et al.
# Submitted via: ExactAudioCopy v0.95b3
#
DISCID=a9120f0c
DTITLE=Various Artist - Mark Reeder - Five Point One [CD2 - More 2.0 
DTITLE=Stereo Remixes)
DYEAR=2011
DGENRE=Electronic
TTITLE0=John Foxx - Underpass (Mark Reeder's Dark, Long and Sinister Rem
TTITLE0=ix)
TTITLE1=Blank and Jones feat. Vanessa Daou - Heart Of Wax (Mark Reeder's
TTITLE1=Heart Of Crystal Mix)
TTITLE2=Sam Taylor-Wood with The Pet Shop Boys - I'm In Love With A Ge
TTITLE2=rman Film Star (Mark Reeder's Rias Remix)
TTITLE3=Echoes - Ice Cold (Mark Reeder's Colder Than Ice Remix)
TTITLE4=Parralox - Sharper Than A Knife (Mark Reeder's Cutting Edge Re
TTITLE4=mix)
TTITLE5=Bad Lieutenant - Sink Or Swim (Mark Reeder's Waterwing Remix)
TTITLE6=Vanessa Daou - Black and White (Mark Reeder's Monochrome Mix)
TTITLE7=Anne Clark - Full Moon (Mark Reeder's Stairway To The Stars Re
TTITLE7=mix)
TTITLE8=Fidelity Kastrow - 21st Century Girl (Mark Reeder's Strident R
TTITLE8=emix Edit)
TTITLE9=Electrobelle - Falling (Mark Reeder's In Your Heart Remix)
TTITLE10=Bad Lieutenant - Twist Of Fate (Mark Reeder's Synth Of Fate R
TTITLE10=emix)
TTITLE11=Die Toten Hosen - Disco (Mark Reeder's Kurze Hosen Remix)
EXTD=
EXTT0=
EXTT1=
EXTT2=
EXTT3=
EXTT4=
EXTT5=
EXTT6=
EXTT7=
EXTT8=
EXTT9=
EXTT10=
EXTT11=
PLAYORDER=
